custom-analysis
version=1
nRows=11
nColumns=42
inDegrees=no

This file contains tibia displacement and acting force.

Units are S.I. units (seconds, meters, Newtons, ...)
Angles are in degrees.

endheader
time	APT	SIT	knee_angle	aACL_R_force	pACL_R_force	aPCL_R_force	pPCL_R_force	aMCL_R_force	mMCL_R_force	pMCL_R_force	aLCL_R_force	mLCL_R_force	pLCL_R_force	aACL_R_length	pACL_R_length	aPCL_R_length	pPCL_R_length	aMCL_R_length	mMCL_R_length	pMCL_R_length	aLCL_R_length	mLCL_R_length	pLCL_R_length	aACL_R_strain	pACL_R_strain	aPCL_R_strain	pPCL_R_strain	aMCL_R_strain	mMCL_R_strain	pMCL_R_strain	aLCL_R_strain	mLCL_R_strain	pLCL_R_strain	femur_lat_meniscii_force_r	femur_lat_meniscii_torque_r	femur_med_meniscii_force_r	femur_med_meniscii_torque_r	femur_lat_tibia_force_r	femur_lat_tibia_torque_r	femur_med_tibia_force_r	femur_med_tibia_torque_r
      0.70500933	      0.00098880	      0.00014446	     15.00005728	     39.13894210	     38.38387377	      0.00000000	      0.00000000	      0.00000000	      0.00000000	      0.00000000	      5.12980362	      0.00000000	     -0.03301037	      0.03432578	      0.02803838	      0.03043912	      0.02998183	      0.05618668	      0.05970625	      0.06049700	      0.05767280	      0.05539825	      0.05267079	      0.07249621	      0.06372379	     -0.02110211	     -0.00352218	     -0.03171485	     -0.00145922	     -0.00380388	      0.03029090	     -0.01634186	      0.00626806	     90.47357747	     22.70239202	     61.56933689	     16.20819651	      0.00000000	      0.00000000	      0.00000000	      0.00000000
      0.70726219	      0.00098622	      0.00014583	     15.00005728	     39.32076924	     38.59522133	      0.00000000	      0.00000000	      0.00000000	      0.00000000	      0.00000000	      5.57358808	      0.00000000	      0.40884306	      0.03432501	      0.02803816	      0.03043850	      0.02998091	      0.05618349	      0.05970313	      0.06049379	      0.05767307	      0.05539845	      0.05267096	      0.07247214	      0.06371557	     -0.02112216	     -0.00355267	     -0.03176981	     -0.00151136	     -0.00385667	      0.03029575	     -0.01633831	      0.00627135	     89.26418240	     22.39586011	     61.30821331	     16.14891692	      0.00000000	      0.00000000	      0.00000000	      0.00000000
      0.70777562	      0.00098565	      0.00014606	     15.00005728	     39.33718723	     38.61804944	      0.00000000	      0.00000000	      0.00000000	      0.00000000	      0.00000000	      5.59278570	      0.00000000	      0.42768880	      0.03432493	      0.02803821	      0.03043840	      0.02998074	      0.05618283	      0.05970248	      0.06049312	      0.05767320	      0.05539856	      0.05267106	      0.07246961	      0.06371742	     -0.02112546	     -0.00355825	     -0.03178128	     -0.00152221	     -0.00386768	      0.03029803	     -0.01633633	      0.00627336	     89.12940065	     22.36027638	     61.31960402	     16.14895235	      0.00000000	      0.00000000	      0.00000000	      0.00000000
      0.70896417	      0.00098435	      0.00014664	     15.00005728	     39.30514751	     38.59735960	      0.00000000	      0.00000000	      0.00000000	      0.00000000	      0.00000000	      5.51825508	      0.00000000	      0.35201870	      0.03432473	      0.02803832	      0.03043811	      0.02998030	      0.05618124	      0.05970093	      0.06049153	      0.05767345	      0.05539878	      0.05267127	      0.07246358	      0.06372154	     -0.02113476	     -0.00357290	     -0.03180867	     -0.00154811	     -0.00389393	      0.03030260	     -0.01633241	      0.00627728	     89.06284580	     22.34094534	     61.54877622	     16.20121808	      0.00000000	      0.00000000	      0.00000000	      0.00000000
      0.71203034	      0.00098095	      0.00014856	     15.00005728	     39.26969428	     38.59388385	      0.00000000	      0.00000000	      0.00000000	      0.00000000	      0.00000000	      5.50649193	      0.00000000	      0.33618124	      0.03432392	      0.02803830	      0.03043702	      0.02997880	      0.05617667	      0.05969647	      0.06048695	      0.05767377	      0.05539900	      0.05267144	      0.07243816	      0.06372098	     -0.02116987	     -0.00362273	     -0.03188742	     -0.00162279	     -0.00396937	      0.03030815	     -0.01632859	      0.00628060	     88.61852861	     22.22405979	     62.08570622	     16.31626997	      0.00000000	      0.00000000	      0.00000000	      0.00000000
      0.71634225	      0.00097590	      0.00015088	     15.00005728	     39.13383049	     38.50000143	      0.00000000	      0.00000000	      0.00000000	      0.00000000	      0.00000000	      5.16973372	      0.00000000	     -0.00372110	      0.03432316	      0.02803872	      0.03043582	      0.02997701	      0.05617042	      0.05969038	      0.06048068	      0.05767469	      0.05539978	      0.05267216	      0.07241441	      0.06373696	     -0.02120831	     -0.00368207	     -0.03199503	     -0.00172458	     -0.00407251	      0.03032462	     -0.01631469	      0.00629438	     88.48030147	     22.16604535	     63.10368082	     16.54211496	      0.00000000	      0.00000000	      0.00000000	      0.00000000
      0.71687487	      0.00097533	      0.00015135	     15.00005728	     39.18431655	     38.55697543	      0.00000000	      0.00000000	      0.00000000	      0.00000000	      0.00000000	      5.32231551	      0.00000000	      0.14922999	      0.03432294	      0.02803865	      0.03043550	      0.02997662	      0.05616948	      0.05968945	      0.06047974	      0.05767462	      0.05539970	      0.05267208	      0.07240750	      0.06373403	     -0.02121858	     -0.00369518	     -0.03201133	     -0.00174010	     -0.00408809	      0.03032349	     -0.01631611	      0.00629272	     88.15567900	     22.08303332	     63.08161461	     16.52986642	      0.00000000	      0.00000000	      0.00000000	      0.00000000
      0.71953798	      0.00097249	      0.00015323	     15.00005728	     39.26738505	     38.66808249	      0.00000000	      0.00000000	      0.00000000	      0.00000000	      0.00000000	      5.61116893	      0.00000000	      0.43857137	      0.03432223	      0.02803866	      0.03043426	      0.02997501	      0.05616517	      0.05968523	      0.06047543	      0.05767475	      0.05539975	      0.05267209	      0.07238543	      0.06373448	     -0.02125853	     -0.00374863	     -0.03208564	     -0.00181066	     -0.00415910	      0.03032580	     -0.01631519	      0.00629301	     87.30797763	     21.85880806	     63.39128419	     16.59979724	      0.00000000	      0.00000000	      0.00000000	      0.00000000
      0.72255882	      0.00096931	      0.00015469	     15.00005728	     39.17216428	     38.59803874	      0.00000000	      0.00000000	      0.00000000	      0.00000000	      0.00000000	      5.36951484	      0.00000000	      0.19706351	      0.03432199	      0.02803922	      0.03043342	      0.02997377	      0.05616093	      0.05968111	      0.06047119	      0.05767559	      0.05540050	      0.05267280	      0.07237787	      0.06375578	     -0.02128565	     -0.00379002	     -0.03215863	     -0.00187969	     -0.00422882	      0.03034071	     -0.01630185	      0.00630658	     87.25269915	     21.82971508	     64.21040418	     16.79357107	      0.00000000	      0.00000000	      0.00000000	      0.00000000
      0.72294147	      0.00096894	      0.00015496	     15.00005728	     39.20953777	     38.64000914	      0.00000000	      0.00000000	      0.00000000	      0.00000000	      0.00000000	      5.46426305	      0.00000000	      0.29220874	      0.03432190	      0.02803923	      0.03043323	      0.02997353	      0.05616032	      0.05968051	      0.06047058	      0.05767561	      0.05540052	      0.05267281	      0.07237500	      0.06375602	     -0.02129163	     -0.00379790	     -0.03216912	     -0.00188967	     -0.00423883	      0.03034111	     -0.01630163	      0.00630673	     87.03784735	     21.77478965	     64.19080961	     16.78570970	      0.00000000	      0.00000000	      0.00000000	      0.00000000
      0.72485472	      0.00096718	      0.00015606	     15.00005728	     39.25925172	     38.70745247	      0.00000000	      0.00000000	      0.00000000	      0.00000000	      0.00000000	      5.61103702	      0.00000000	      0.44007748	      0.03432165	      0.02803946	      0.03043247	      0.02997252	      0.05615752	      0.05967777	      0.06046779	      0.05767593	      0.05540079	      0.05267307	      0.07236732	      0.06376492	     -0.02131618	     -0.00383146	     -0.03221749	     -0.00193557	     -0.00428492	      0.03034689	     -0.01629667	      0.00631162	     86.53320293	     21.64456739	     64.46019762	     16.84188763	      0.00000000	      0.00000000	      0.00000000	      0.00000000
